Coordinates
version=1
nRows=18
nColumns=63
inDegrees=yes

Units are S.I. units (second, meters, Newtons, ...)
If the header above contains a line with 'inDegrees', this indicates whether rotational values are in degrees (yes) or radians (no).

endheader
time	pelvis_tilt	pelvis_list	pelvis_rotation	pelvis_tx	pelvis_ty	pelvis_tz	hip_flexion_r	hip_adduction_r	hip_rotation_r	knee_angle_r	knee_angle_r_beta	ankle_angle_r	subtalar_angle_r	mtp_angle_r	hip_flexion_l	hip_adduction_l	hip_rotation_l	knee_angle_l	knee_angle_l_beta	ankle_angle_l	subtalar_angle_l	mtp_angle_l	L5_S1_Flex_Ext	L5_S1_Lat_Bending	L5_S1_axial_rotation	L4_L5_Flex_Ext	L4_L5_Lat_Bending	L4_L5_axial_rotation	L3_L4_Flex_Ext	L3_L4_Lat_Bending	L3_L4_axial_rotation	L2_L3_Flex_Ext	L2_L3_Lat_Bending	L2_L3_axial_rotation	L1_L2_Flex_Ext	L1_L2_Lat_Bending	L1_L2_axial_rotation	L1_T12_Flex_Ext	L1_T12_Lat_Bending	L1_T12_axial_rotation	Abs_r3	Abs_r2	Abs_r1	Abs_t1	Abs_t2	neck_flexion	neck_bending	neck_rotation	arm_flex_r	arm_add_r	arm_rot_r	elbow_flex_r	pro_sup_r	wrist_flex_r	wrist_dev_r	arm_flex_l	arm_add_l	arm_rot_l	elbow_flex_l	pro_sup_l	wrist_flex_l	wrist_dev_l
1.320000	0.334081	-3.679920	67.860041	0.249700	0.395805	0.918474	-2.777859	4.302467	0.216127	4.732135	0.082591	20.803250	1.889267	0.000000	-3.702775	-3.248428	-8.094251	5.932407	0.103540	24.704083	-3.068663	0.000000	-0.953405	1.065588	1.073482	-1.770568	1.417233	1.140575	-1.566349	2.590872	1.140575	-1.089646	2.590872	0.939297	-0.885332	2.172948	0.872204	-0.544775	1.650596	0.805112	-6.810075	12.054149	5.970386	0.000000	0.000000	16.824743	-6.254377	11.435578	11.074583	-10.542757	121.335464	4.183722	-4.163173	-4.922250	-5.460879	17.882288	0.018084	121.559014	6.484896	-2.232495	-5.982228	-5.600242
1.340000	0.019852	-3.688791	68.261834	0.249035	0.396158	0.918691	-2.637014	4.053013	0.097739	4.623882	0.080702	20.891564	1.603705	0.000000	-3.402650	-2.986526	-7.829172	6.070512	0.105950	24.800982	-2.789268	0.000000	-0.915192	1.022779	0.990183	-1.699603	1.360296	1.052069	-1.503569	2.486784	1.052069	-1.045973	2.486784	0.866410	-0.849847	2.085650	0.804523	-0.522941	1.584284	0.742637	-6.537126	11.569876	5.507099	0.000000	0.000000	17.184382	-6.104790	11.039571	10.589963	-10.378261	120.432096	5.109660	-3.344672	-7.241626	-5.689836	17.299627	-0.239945	122.459221	6.750443	-2.359643	-4.603396	-6.207297
1.360000	-0.379812	-3.673226	68.673768	0.248627	0.396936	0.918786	-2.510567	3.723126	-0.093299	4.480288	0.078196	20.945632	1.382827	0.000000	-3.111312	-2.647610	-7.779641	6.179622	0.107855	24.873131	-2.185015	0.000000	-0.871776	0.962359	0.871030	-1.618974	1.279937	0.925469	-1.432240	2.339880	0.925469	-0.996352	2.339880	0.762151	-0.809531	1.962443	0.707712	-0.498133	1.490694	0.653272	-6.227006	10.886398	4.844405	0.000000	0.000000	17.131782	-5.892981	10.624696	10.256717	-10.198428	117.684119	5.868782	-0.407677	-9.246572	-6.124350	16.473701	-0.675279	121.911583	7.021791	-0.574632	-5.030639	-6.994652
1.380000	-0.763977	-3.635722	69.064182	0.248144	0.398116	0.918750	-2.406595	3.376578	-0.574242	4.351325	0.075945	20.989963	1.544280	0.000000	-2.869834	-2.303941	-7.874543	6.245901	0.109012	24.919732	-1.405076	0.000000	-0.829154	0.903322	0.744096	-1.539822	1.201419	0.790602	-1.362217	2.196338	0.790602	-0.947640	2.196338	0.651084	-0.769953	1.842055	0.604578	-0.473779	1.399247	0.558072	-5.922565	10.218564	4.138436	0.000000	0.000000	16.764626	-5.830674	10.175297	10.267103	-10.253020	114.624642	6.261034	2.133730	-9.441264	-7.152164	15.552704	-1.112008	120.223559	7.092865	2.761334	-7.064646	-8.046388
1.400000	-1.412957	-3.635294	69.464645	0.248657	0.401176	0.918914	-2.194674	2.814505	-1.431395	4.199165	0.073289	20.698963	2.062861	0.000000	-2.556077	-1.770545	-8.420058	6.199664	0.108205	24.430409	-0.041734	0.000000	-0.761059	0.771713	0.415737	-1.413363	1.026378	0.441721	-1.250344	1.876342	0.441721	-0.869814	1.876342	0.363770	-0.706720	1.573676	0.337786	-0.434869	1.195383	0.311803	-5.436169	8.729768	2.312205	0.000000	0.000000	15.515826	-4.829865	10.315071	13.719533	-10.843176	122.165428	0.076810	-2.886416	-3.336880	-10.284628	14.879499	-1.990289	122.015103	6.125444	2.400226	-10.055550	-10.035530
1.420000	-1.848547	-3.650855	69.837844	0.248329	0.404706	0.918956	-2.009132	2.390997	-2.569609	4.091015	0.071402	20.300293	2.922596	0.000000	-2.302689	-1.393700	-9.035058	6.142029	0.107199	23.936797	1.348174	0.000000	-0.702098	0.677730	0.173086	-1.303867	0.901381	0.183904	-1.153477	1.647832	0.183904	-0.802428	1.647832	0.151450	-0.651968	1.382027	0.140632	-0.401179	1.049803	0.129815	-5.015018	7.666615	0.962653	0.000000	0.000000	14.183878	-4.306205	10.205459	15.690387	-11.726092	125.526647	-3.522032	-5.055605	1.891980	-12.547234	14.264106	-2.548833	124.560143	5.112233	2.018023	-14.135661	-12.002481
1.440000	-2.055004	-3.634267	70.218565	0.247025	0.408927	0.919294	-1.865423	2.106955	-4.045607	4.048414	0.070658	19.759096	4.130574	0.000000	-2.111422	-1.182442	-9.659741	6.116413	0.106752	23.382838	2.709279	0.000000	-0.656735	0.623976	0.044830	-1.219623	0.829888	0.047632	-1.078950	1.517134	0.047632	-0.750583	1.517134	0.039226	-0.609844	1.272411	0.036424	-0.375258	0.966538	0.033622	-4.690994	7.058536	0.249329	0.000000	0.000000	12.639858	-4.227364	9.560398	16.079191	-12.624038	124.906987	-4.499588	-4.463256	6.040664	-14.113852	13.796415	-2.699117	127.862972	4.114219	1.626016	-19.117157	-13.919051
1.460000	-2.033325	-3.511780	70.629354	0.244732	0.413956	0.920404	-1.797008	1.952101	-5.868590	4.093013	0.071437	19.068581	5.662556	0.000000	-2.007039	-1.135344	-10.310097	6.155951	0.107442	22.738802	4.082946	0.000000	-0.631798	0.610481	0.065689	-1.173311	0.811939	0.069795	-1.037980	1.484323	0.069795	-0.722082	1.484323	0.057478	-0.586687	1.244892	0.053373	-0.361009	0.945635	0.049267	-4.512867	6.905880	0.365344	0.000000	0.000000	10.753123	-4.562414	7.953618	14.928510	-13.219889	120.549840	-2.936815	-1.857296	9.559944	-15.001565	13.583556	-2.304682	131.977720	3.173849	1.249311	-24.809354	-15.778248
1.480000	-1.799474	-3.228409	71.076054	0.241585	0.419752	0.922594	-1.846787	1.913641	-8.003017	4.210578	0.073488	18.241380	7.489729	0.000000	-2.024992	-1.236167	-10.961385	6.255710	0.109183	21.989165	5.445197	0.000000	-0.631523	0.635088	0.252432	-1.172802	0.844668	0.268209	-1.037530	1.544154	0.268209	-0.721768	1.544154	0.220878	-0.586433	1.295072	0.205101	-0.360852	0.983752	0.189324	-4.510908	7.184247	1.403953	0.000000	0.000000	8.569367	-5.094236	5.369402	12.294174	-13.284005	112.944187	1.126936	2.459299	12.056215	-15.296328	13.748768	-1.291880	137.020139	2.321804	0.911405	-30.999740	-17.568454
1.500000	-1.373379	-2.763032	71.591190	0.237679	0.426142	0.926112	-2.009832	1.989941	-10.356046	4.420140	0.077146	17.289295	9.448644	0.000000	-2.130009	-1.495578	-11.651057	6.488014	0.113237	21.177067	6.878664	0.000000	-0.657035	0.697833	0.603554	-1.220180	0.928118	0.641276	-1.079443	1.696711	0.641276	-0.750926	1.696711	0.528109	-0.610123	1.423021	0.490387	-0.375430	1.080943	0.452665	-4.693137	7.894024	3.356784	0.000000	0.000000	6.240189	-5.707704	1.975358	8.377903	-12.647697	102.964854	7.394554	7.711199	14.325603	-14.966190	14.414270	0.380284	142.869428	1.594086	0.711823	-37.521123	-19.286842
1.520000	-0.790201	-2.076411	72.178637	0.233289	0.432879	0.931040	-2.325168	2.163722	-12.920170	4.709703	0.082200	16.274562	11.563574	0.000000	-2.360265	-1.889798	-12.342127	6.831643	0.119235	20.313115	8.348219	0.000000	-0.710785	0.795251	1.117329	-1.319999	1.057684	1.187162	-1.167749	1.933573	1.187162	-0.812356	1.933573	0.977663	-0.660035	1.621676	0.907830	-0.406143	1.231844	0.837997	-5.077066	8.996038	6.214251	0.000000	0.000000	3.922981	-6.267105	-2.059272	3.391302	-11.203454	90.745275	15.695828	13.713677	16.703091	-14.483723	15.726431	2.710057	149.395339	1.010790	0.635342	-44.155855	-20.846684
1.540000	-0.111019	-1.117048	72.872129	0.228740	0.439651	0.937339	-2.864756	2.422091	-15.281635	5.028110	0.087757	15.164942	13.239221	0.000000	-2.744258	-2.380153	-12.947298	7.310427	0.127591	19.437254	9.785525	0.000000	-0.795836	0.922189	1.780347	-1.477947	1.226511	1.891618	-1.307479	2.242209	1.891618	-0.909561	2.242209	1.557803	-0.739013	1.880527	1.446532	-0.454741	1.428470	1.335260	-5.684575	10.431981	9.901754	0.000000	0.000000	1.691453	-6.731199	-6.589523	-2.354514	-8.892214	76.243969	26.000064	20.442823	18.912587	-14.069576	17.849019	5.645060	156.679271	0.525967	0.551544	-50.646746	-22.192728
1.560000	0.597350	0.107991	73.702673	0.224363	0.446116	0.944705	-3.644502	2.735458	-17.473058	5.354426	0.093452	14.065592	14.515442	0.000000	-3.289141	-2.923969	-13.371774	7.910108	0.138057	18.595793	11.112075	0.000000	-0.907961	1.071038	2.579532	-1.686174	1.424480	2.740753	-1.491689	2.604121	2.740753	-1.037708	2.604121	2.257091	-0.843132	2.184060	2.095870	-0.518809	1.659037	1.934649	-6.485473	12.115791	14.346585	0.000000	0.000000	-0.394009	-7.020472	-11.459612	-8.484118	-5.794233	59.489215	38.134284	27.721063	20.798601	-13.777802	20.827362	9.090447	164.203003	0.139619	0.522347	-56.778815	-23.248827
1.580000	1.319201	1.590124	74.667886	0.220321	0.451975	0.952721	-4.686912	3.101371	-19.502382	5.675982	0.099065	13.072638	15.433041	0.000000	-4.016483	-3.513914	-13.551947	8.622732	0.150495	17.852809	12.252743	0.000000	-1.041126	1.239996	3.510519	-1.933475	1.649195	3.729927	-1.710466	3.014926	3.729927	-1.189903	3.014926	3.071704	-0.966790	2.528600	2.852297	-0.594899	1.920754	2.632889	-7.436659	14.027083	19.524455	0.000000	0.000000	-2.164604	-7.061799	-16.525290	-14.765190	-2.098802	40.332843	51.696024	35.323314	22.257870	-13.692209	24.645212	12.998511	171.541913	-0.166723	0.493043	-62.317880	-23.996643
1.600000	2.001909	3.281134	75.726019	0.216834	0.456943	0.960877	-5.978872	3.490088	-21.249359	5.951891	0.103880	12.255098	15.917401	0.000000	-4.928282	-4.097467	-13.476649	9.400085	0.164062	17.257618	13.145413	0.000000	-1.186659	1.422521	4.565298	-2.203745	1.891953	4.850629	-1.949562	3.458718	4.850629	-1.356233	3.458718	3.994636	-1.101932	2.900805	3.709305	-0.678057	2.203485	3.423973	-8.476187	16.091842	25.390817	0.000000	0.000000	-3.592681	-6.860785	-21.653682	-20.996864	2.033584	19.144752	66.191239	42.921940	23.414188	-13.712805	29.212208	17.237749	178.041910	-0.348327	0.498737	-67.102245	-24.464266
1.620000	2.609657	5.121722	76.877382	0.213996	0.460812	0.968730	-7.480428	3.880187	-22.823475	6.174741	0.107770	11.728233	16.153206	0.000000	-5.997625	-4.636881	-12.962910	10.208590	0.178174	16.803950	13.552698	0.000000	-1.336649	1.612117	5.713748	-2.482290	2.144115	6.070857	-2.195980	3.919700	6.070857	-1.527656	3.919700	4.999530	-1.241212	3.287428	4.642420	-0.763761	2.497169	4.285311	-9.547547	18.236585	31.778153	0.000000	0.000000	-4.656338	-6.466754	-26.700212	-27.068167	6.400298	-4.292136	81.271574	50.211332	24.129371	-13.679739	34.434924	21.667322	183.480494	-0.414247	0.490432	-70.913885	-24.669447
1.640000	3.111888	7.049352	78.061764	0.211925	0.463460	0.975900	-9.156639	4.252124	-24.006662	6.303192	0.110011	11.474150	15.946188	0.000000	-7.199022	-5.100897	-12.080609	11.011863	0.192193	16.531531	13.519759	0.000000	-1.483663	1.799601	6.918590	-2.755311	2.393469	7.351001	-2.437511	4.375550	7.351001	-1.695679	4.375550	6.053766	-1.377730	3.669747	5.621354	-0.847765	2.787582	5.188942	-10.597659	20.357447	38.479120	0.000000	0.000000	-5.379581	-5.913672	-31.543390	-32.826494	10.843978	-28.909213	96.383412	56.830901	24.273898	-13.516129	40.172743	26.103708	187.437755	-0.335552	0.486563	-73.557193	-24.702485
1.660000	3.466274	8.974838	79.286655	0.210636	0.464809	0.982071	-10.903735	4.559201	-25.205574	6.389181	0.111512	11.627941	15.853113	0.000000	-8.450397	-5.460403	-10.909012	11.802037	0.205984	16.495156	13.182526	0.000000	-1.620730	1.972484	8.120767	-3.009858	2.623404	8.628315	-2.662698	4.795898	8.628315	-1.852333	4.795898	7.105671	-1.505010	4.022289	6.598123	-0.926085	3.055378	6.090575	-11.576714	22.313133	45.165270	0.000000	0.000000	-5.754392	-5.208146	-36.011787	-38.068672	15.222094	-53.551406	110.926150	62.489563	23.799293	-13.287442	46.265275	30.345829	189.607764	-0.079980	0.493281	-74.780744	-24.720606
